<?xml version="1.0" encoding="UTF-8"?>
<svg id="Layer_1" data-name="Layer 1" xmlns="http://www.w3.org/2000/svg" viewBox="0 0 292.83 185.83">
  <defs>
    <style>
      .cls-1, .cls-2 {
        font-family: 'Helvetica Neue', Helvetica, Arial, sans-serif;
        font-size: 8px;
      }

      .cls-1, .cls-3, .cls-4 {
        fill: #5b5c67;
      }

      .cls-2, .cls-5, .cls-6 {
        fill: #fff;
      }

      .cls-7 {
        fill: none;
        stroke: #5b5c67;
        stroke-miterlimit: 10;
      }

      .cls-6, .cls-4 {
        font-family: 'Helvetica Neue', Helvetica, Arial, sans-serif;
        font-size: 12px;
        font-weight: 500;
      }

      .cls-8 {
        letter-spacing: 0em;
      }

      .cls-9 {
        letter-spacing: -.09em;
      }

      .cls-10 {
        letter-spacing: -.02em;
      }

      .cls-11 {
        letter-spacing: -.02em;
      }

      .cls-12 {
        fill: #663695;
        opacity: .6;
      }
    </style>
  </defs>
  <rect class="cls-12" x="131.19" width="161.64" height="111.98" rx="12" ry="12"/>
  <line class="cls-7" x1="141.01" y1="78.52" x2="141.01" y2="126.92"/>
  <line class="cls-7" x1="95.45" y1="102.78" x2="178.07" y2="102.78"/>
  <text class="cls-2" transform="translate(139.5 31) rotate(90)"><tspan x="0" y="0">PRACTICAL</tspan></text>
  <text class="cls-1" transform="translate(139.5 132.05) rotate(90)"><tspan x="0" y="0">THEORETICAL</tspan></text>
  <text class="cls-4" transform="translate(22.36 55.55)"><tspan class="cls-9" x="0" y="0">T</tspan><tspan class="cls-8" x="6.01" y="0">utorials</tspan></text>
  <text class="cls-4" transform="translate(.69 159.34)"><tspan x="0" y="0">Explanations</tspan></text>
  <text class="cls-4" transform="translate(212.4 152.13)"><tspan x="0" y="0">Highlighted</tspan><tspan class="cls-10" x="0" y="14.4">r</tspan><tspan class="cls-8" x="4.01" y="14.4">esou</tspan><tspan class="cls-11" x="30.91" y="14.4">r</tspan><tspan x="34.92" y="14.4">ces</tspan></text>
  <text class="cls-6" transform="translate(212.4 48.35)"><tspan x="0" y="0">How to</tspan><tspan x="0" y="14.4">guides</tspan></text>
  <text class="cls-1" transform="translate(0 104.28)"><tspan x="0" y="0">USEFUL FOR LEARNING</tspan></text>
  <text class="cls-2" transform="translate(183.15 104.28)"><tspan x="0" y="0">USEFUL FOR WORKING</tspan></text>
  <path class="cls-3" d="M185.06,145.91c.55,0,1,.45,1,1v4c0,.55-.45,1-1,1h-2v2h5v-1c0-.55.45-1,1-1h6c.55,0,1,.45,1,1v4c0,.55-.45,1-1,1h-6c-.55,0-1-.45-1-1v-1h-5v6h5v-1c0-.55.45-1,1-1h6c.55,0,1,.45,1,1v4c0,.55-.45,1-1,1h-6c-.55,0-1-.45-1-1v-1h-6c-.55,0-1-.45-1-1v-11h-2c-.55,0-1-.45-1-1v-4c0-.55.45-1,1-1h6ZM194.06,161.91h-4v2h4v-2ZM194.06,153.91h-4v2h4v-2ZM184.06,147.91h-4v2h4v-2Z"/>
  <path class="cls-3" d="M94.18,47.33l-6-3-4.94,2.12v12.65l5.06-2.17,6,3,4.94-2.12v-12.65l-5.06,2.17ZM81.25,45.13l7-3,6,3,6.3-2.7c.25-.11.55,0,.66.26.03.06.04.13.04.2v16.24l-7,3-6-3-6.3,2.7c-.25.11-.55,0-.66-.26-.03-.06-.04-.13-.04-.2v-16.24ZM85.25,51.13h2v2h-2v-2ZM89.25,51.13h2v2h-2v-2ZM95.24,51.07l1.24-1.24,1.06,1.06-1.24,1.24,1.24,1.24-1.06,1.06-1.24-1.24-1.24,1.24-1.06-1.06,1.24-1.24-1.24-1.24,1.06-1.06,1.24,1.24Z"/>
  <path class="cls-5" d="M179.06,43.13c-.55,0-1,.45-1,1v16c0,.55.45,1,1,1h10c.55,0,1-.45,1-1v-4.7l1,4.7c.11.54.65.89,1.19.77l3.91-.83c.54-.11.89-.65.77-1.19l-2.91-13.69c-.11-.54-.65-.89-1.19-.77l-2.78.59c-.06-.49-.48-.88-.99-.88h-4c0-.55-.45-1-1-1h-5ZM185.06,46.13h3v8h-3v-8ZM185.06,59.13v-3h3v3h-3ZM183.06,45.13v10h-3v-10h3ZM183.06,57.13v2h-3v-2h3ZM192.39,56.78l1.96-.42.42,1.96-1.96.42-.42-1.96ZM191.98,54.82l-1.66-7.83,1.96-.42,1.66,7.83-1.96.42Z"/>
  <path class="cls-3" d="M85.01,160.16h14.24v-12h-16v13.39l1.76-1.39ZM85.7,162.16l-4.45,3.5v-18.5c0-.55.45-1,1-1h18c.55,0,1,.45,1,1v14c0,.55-.45,1-1,1h-14.55ZM90.25,157.16h2v2h-2v-2ZM87.81,151.98c.32-1.6,1.73-2.81,3.43-2.81,1.93,0,3.5,1.57,3.5,3.5s-1.57,3.5-3.5,3.5h-1v-2h1c.83,0,1.5-.67,1.5-1.5s-.67-1.5-1.5-1.5c-.73,0-1.33.52-1.47,1.21l-1.96-.39Z"/>
</svg>